<svg id="Layer_1" data-name="Layer 1" xmlns="http://www.w3.org/2000/svg" viewBox="0 0 146.87 109.82">
  <defs>
    <style>
      .cls-1 {
        fill: #053d6b;
      }

      .cls-1, .cls-2, .cls-3, .cls-4 {
        fill-rule: evenodd;
      }

      .cls-2 {
        fill: #0d73a8;
      }

      .cls-3 {
        fill: #b56b1c;
      }

      .cls-4 {
        fill: #f5cc0d;
      }
    </style>
  </defs>
  <title>correios</title>
  <g>
    <path class="cls-1" d="M382,905.1c-14.33-.11-28.35,0-42.68-.1,9.14,12.52,18.84,24,28,36.47,7.44-9,13.62-18,21.07-27.06,2.88-4.26-1.38-9.51-6.37-9.31Z" transform="translate(-275 -905)"/>
    <path class="cls-2" d="M390.42,977.93H339.29c13-16.35,36.23-47.32,49.22-63.66,2.26-4.52-.89-8.24-5.34-9.23,8,.17,10.78.07,13.91,3,7.92,10.11,15.54,20.6,23.46,30.71,2.35,2.88,1.32,4.88-1.05,7.69Q409.34,959.73,399.16,973a13.62,13.62,0,0,1-8.74,4.95Z" transform="translate(-275 -905)"/>
    <path class="cls-3" d="M314.55,1014.79c14.33.11,28.56-.19,42.88-.08-9.13-12.52-18.55-23.81-27.69-36.33-7.44,9-13.83,18.11-21.28,27.13-2.3,4.07.49,8.57,6.09,9.28Z" transform="translate(-275 -905)"/>
    <path class="cls-4" d="M306.45,941.92h51.13c-13,16.35-36.23,47.32-49.22,63.66-2.26,4.52.89,8.24,5.34,9.23-8-.17-10.78-.07-13.91-3-7.92-10.11-15.54-20.6-23.46-30.71-2.35-2.88-1.32-4.88,1-7.69l20.34-26.51a13.62,13.62,0,0,1,8.74-5Z" transform="translate(-275 -905)"/>
  </g>
</svg>

