<svg width="238" height="32" viewBox="0 0 238 32" fill="none" xmlns="http://www.w3.org/2000/svg">
<path d="M60.5625 17.7891C60.5625 19.75 60.1172 21.3164 59.2266 22.4883C58.3359 23.6523 57.1406 24.2344 55.6406 24.2344C54.25 24.2344 53.1367 23.7773 52.3008 22.8633V28.875H49.4531V11.3203H52.0781L52.1953 12.6094C53.0312 11.5938 54.168 11.0859 55.6055 11.0859C57.1523 11.0859 58.3633 11.6641 59.2383 12.8203C60.1211 13.9688 60.5625 15.5664 60.5625 17.6133V17.7891ZM57.7266 17.543C57.7266 16.2773 57.4727 15.2734 56.9648 14.5312C56.4648 13.7891 55.7461 13.418 54.8086 13.418C53.6445 13.418 52.8086 13.8984 52.3008 14.8594V20.4844C52.8164 21.4688 53.6602 21.9609 54.832 21.9609C55.7383 21.9609 56.4453 21.5977 56.9531 20.8711C57.4688 20.1367 57.7266 19.0273 57.7266 17.543ZM70.5586 24C70.4336 23.7578 70.3242 23.3633 70.2305 22.8164C69.3242 23.7617 68.2148 24.2344 66.9023 24.2344C65.6289 24.2344 64.5898 23.8711 63.7852 23.1445C62.9805 22.418 62.5781 21.5195 62.5781 20.4492C62.5781 19.0977 63.0781 18.0625 64.0781 17.3438C65.0859 16.6172 66.5234 16.2539 68.3906 16.2539H70.1367V15.4219C70.1367 14.7656 69.9531 14.2422 69.5859 13.8516C69.2188 13.4531 68.6602 13.2539 67.9102 13.2539C67.2617 13.2539 66.7305 13.418 66.3164 13.7461C65.9023 14.0664 65.6953 14.4766 65.6953 14.9766H62.8477C62.8477 14.2812 63.0781 13.6328 63.5391 13.0312C64 12.4219 64.625 11.9453 65.4141 11.6016C66.2109 11.2578 67.0977 11.0859 68.0742 11.0859C69.5586 11.0859 70.7422 11.4609 71.625 12.2109C72.5078 12.9531 72.9609 14 72.9844 15.3516V21.0703C72.9844 22.2109 73.1445 23.1211 73.4648 23.8008V24H70.5586ZM67.4297 21.9492C67.9922 21.9492 68.5195 21.8125 69.0117 21.5391C69.5117 21.2656 69.8867 20.8984 70.1367 20.4375V18.0469H68.6016C67.5469 18.0469 66.7539 18.2305 66.2227 18.5977C65.6914 18.9648 65.4258 19.4844 65.4258 20.1562C65.4258 20.7031 65.6055 21.1406 65.9648 21.4688C66.332 21.7891 66.8203 21.9492 67.4297 21.9492ZM81.1758 21.9609C81.8867 21.9609 82.4766 21.7539 82.9453 21.3398C83.4141 20.9258 83.6641 20.4141 83.6953 19.8047H86.3789C86.3477 20.5938 86.1016 21.332 85.6406 22.0195C85.1797 22.6992 84.5547 23.2383 83.7656 23.6367C82.9766 24.0352 82.125 24.2344 81.2109 24.2344C79.4375 24.2344 78.0312 23.6602 76.9922 22.5117C75.9531 21.3633 75.4336 19.7773 75.4336 17.7539V17.4609C75.4336 15.5312 75.9492 13.9883 76.9805 12.832C78.0117 11.668 79.418 11.0859 81.1992 11.0859C82.707 11.0859 83.9336 11.5273 84.8789 12.4102C85.832 13.2852 86.332 14.4375 86.3789 15.8672H83.6953C83.6641 15.1406 83.4141 14.543 82.9453 14.0742C82.4844 13.6055 81.8945 13.3711 81.1758 13.3711C80.2539 13.3711 79.543 13.707 79.043 14.3789C78.543 15.043 78.2891 16.0547 78.2812 17.4141V17.8711C78.2812 19.2461 78.5273 20.2734 79.0195 20.9531C79.5195 21.625 80.2383 21.9609 81.1758 21.9609ZM92.6484 18.5625L91.3828 19.8633V24H88.5352V6H91.3828V16.3828L92.2734 15.2695L95.7773 11.3203H99.1992L94.4883 16.6055L99.7031 24H96.4102L92.6484 18.5625ZM108.645 24C108.52 23.7578 108.41 23.3633 108.316 22.8164C107.41 23.7617 106.301 24.2344 104.988 24.2344C103.715 24.2344 102.676 23.8711 101.871 23.1445C101.066 22.418 100.664 21.5195 100.664 20.4492C100.664 19.0977 101.164 18.0625 102.164 17.3438C103.172 16.6172 104.609 16.2539 106.477 16.2539H108.223V15.4219C108.223 14.7656 108.039 14.2422 107.672 13.8516C107.305 13.4531 106.746 13.2539 105.996 13.2539C105.348 13.2539 104.816 13.418 104.402 13.7461C103.988 14.0664 103.781 14.4766 103.781 14.9766H100.934C100.934 14.2812 101.164 13.6328 101.625 13.0312C102.086 12.4219 102.711 11.9453 103.5 11.6016C104.297 11.2578 105.184 11.0859 106.16 11.0859C107.645 11.0859 108.828 11.4609 109.711 12.2109C110.594 12.9531 111.047 14 111.07 15.3516V21.0703C111.07 22.2109 111.23 23.1211 111.551 23.8008V24H108.645ZM105.516 21.9492C106.078 21.9492 106.605 21.8125 107.098 21.5391C107.598 21.2656 107.973 20.8984 108.223 20.4375V18.0469H106.688C105.633 18.0469 104.84 18.2305 104.309 18.5977C103.777 18.9648 103.512 19.4844 103.512 20.1562C103.512 20.7031 103.691 21.1406 104.051 21.4688C104.418 21.7891 104.906 21.9492 105.516 21.9492ZM113.555 17.5664C113.555 15.5977 114.016 14.0273 114.938 12.8555C115.867 11.6758 117.098 11.0859 118.629 11.0859C120.074 11.0859 121.211 11.5898 122.039 12.5977L122.168 11.3203H124.734V23.6133C124.734 25.2773 124.215 26.5898 123.176 27.5508C122.145 28.5117 120.75 28.9922 118.992 28.9922C118.062 28.9922 117.152 28.7969 116.262 28.4062C115.379 28.0234 114.707 27.5195 114.246 26.8945L115.594 25.1836C116.469 26.2227 117.547 26.7422 118.828 26.7422C119.773 26.7422 120.52 26.4844 121.066 25.9688C121.613 25.4609 121.887 24.7109 121.887 23.7188V22.8633C121.066 23.7773 119.973 24.2344 118.605 24.2344C117.121 24.2344 115.906 23.6445 114.961 22.4648C114.023 21.2852 113.555 19.6523 113.555 17.5664ZM116.391 17.8125C116.391 19.0859 116.648 20.0898 117.164 20.8242C117.688 21.5508 118.41 21.9141 119.332 21.9141C120.48 21.9141 121.332 21.4219 121.887 20.4375V14.8594C121.348 13.8984 120.504 13.418 119.355 13.418C118.418 13.418 117.688 13.7891 117.164 14.5312C116.648 15.2734 116.391 16.3672 116.391 17.8125ZM133.254 24.2344C131.449 24.2344 129.984 23.668 128.859 22.5352C127.742 21.3945 127.184 19.8789 127.184 17.9883V17.6367C127.184 16.3711 127.426 15.2422 127.91 14.25C128.402 13.25 129.09 12.4727 129.973 11.918C130.855 11.3633 131.84 11.0859 132.926 11.0859C134.652 11.0859 135.984 11.6367 136.922 12.7383C137.867 13.8398 138.34 15.3984 138.34 17.4141V18.5625H130.055C130.141 19.6094 130.488 20.4375 131.098 21.0469C131.715 21.6562 132.488 21.9609 133.418 21.9609C134.723 21.9609 135.785 21.4336 136.605 20.3789L138.141 21.8438C137.633 22.6016 136.953 23.1914 136.102 23.6133C135.258 24.0273 134.309 24.2344 133.254 24.2344ZM132.914 13.3711C132.133 13.3711 131.5 13.6445 131.016 14.1914C130.539 14.7383 130.234 15.5 130.102 16.4766H135.527V16.2656C135.465 15.3125 135.211 14.5938 134.766 14.1094C134.32 13.6172 133.703 13.3711 132.914 13.3711Z" fill="#737380"/>
<path d="M149.883 26.2383H139.137V24H149.883V26.2383ZM156.973 24.2344C155.168 24.2344 153.703 23.668 152.578 22.5352C151.461 21.3945 150.902 19.8789 150.902 17.9883V17.6367C150.902 16.3711 151.145 15.2422 151.629 14.25C152.121 13.25 152.809 12.4727 153.691 11.918C154.574 11.3633 155.559 11.0859 156.645 11.0859C158.371 11.0859 159.703 11.6367 160.641 12.7383C161.586 13.8398 162.059 15.3984 162.059 17.4141V18.5625H153.773C153.859 19.6094 154.207 20.4375 154.816 21.0469C155.434 21.6562 156.207 21.9609 157.137 21.9609C158.441 21.9609 159.504 21.4336 160.324 20.3789L161.859 21.8438C161.352 22.6016 160.672 23.1914 159.82 23.6133C158.977 24.0273 158.027 24.2344 156.973 24.2344ZM156.633 13.3711C155.852 13.3711 155.219 13.6445 154.734 14.1914C154.258 14.7383 153.953 15.5 153.82 16.4766H159.246V16.2656C159.184 15.3125 158.93 14.5938 158.484 14.1094C158.039 13.6172 157.422 13.3711 156.633 13.3711ZM168.832 15.4922L171.246 11.3203H174.41L170.531 17.5664L174.539 24H171.398L168.867 19.6641L166.348 24H163.184L167.191 17.5664L163.324 11.3203H166.465L168.832 15.4922ZM187.453 17.7891C187.453 19.75 187.008 21.3164 186.117 22.4883C185.227 23.6523 184.031 24.2344 182.531 24.2344C181.141 24.2344 180.027 23.7773 179.191 22.8633V28.875H176.344V11.3203H178.969L179.086 12.6094C179.922 11.5938 181.059 11.0859 182.496 11.0859C184.043 11.0859 185.254 11.6641 186.129 12.8203C187.012 13.9688 187.453 15.5664 187.453 17.6133V17.7891ZM184.617 17.543C184.617 16.2773 184.363 15.2734 183.855 14.5312C183.355 13.7891 182.637 13.418 181.699 13.418C180.535 13.418 179.699 13.8984 179.191 14.8594V20.4844C179.707 21.4688 180.551 21.9609 181.723 21.9609C182.629 21.9609 183.336 21.5977 183.844 20.8711C184.359 20.1367 184.617 19.0273 184.617 17.543ZM192.902 24H190.055V6H192.902V24ZM195.48 17.543C195.48 16.3008 195.727 15.1836 196.219 14.1914C196.711 13.1914 197.402 12.4258 198.293 11.8945C199.184 11.3555 200.207 11.0859 201.363 11.0859C203.074 11.0859 204.461 11.6367 205.523 12.7383C206.594 13.8398 207.172 15.3008 207.258 17.1211L207.27 17.7891C207.27 19.0391 207.027 20.1562 206.543 21.1406C206.066 22.125 205.379 22.8867 204.48 23.4258C203.59 23.9648 202.559 24.2344 201.387 24.2344C199.598 24.2344 198.164 23.6406 197.086 22.4531C196.016 21.2578 195.48 19.668 195.48 17.6836V17.543ZM198.328 17.7891C198.328 19.0938 198.598 20.1172 199.137 20.8594C199.676 21.5938 200.426 21.9609 201.387 21.9609C202.348 21.9609 203.094 21.5859 203.625 20.8359C204.164 20.0859 204.434 18.9883 204.434 17.543C204.434 16.2617 204.156 15.2461 203.602 14.4961C203.055 13.7461 202.309 13.3711 201.363 13.3711C200.434 13.3711 199.695 13.7422 199.148 14.4844C198.602 15.2188 198.328 16.3203 198.328 17.7891ZM216.316 13.9219C215.941 13.8594 215.555 13.8281 215.156 13.8281C213.852 13.8281 212.973 14.3281 212.52 15.3281V24H209.672V11.3203H212.391L212.461 12.7383C213.148 11.6367 214.102 11.0859 215.32 11.0859C215.727 11.0859 216.062 11.1406 216.328 11.25L216.316 13.9219ZM223.465 24.2344C221.66 24.2344 220.195 23.668 219.07 22.5352C217.953 21.3945 217.395 19.8789 217.395 17.9883V17.6367C217.395 16.3711 217.637 15.2422 218.121 14.25C218.613 13.25 219.301 12.4727 220.184 11.918C221.066 11.3633 222.051 11.0859 223.137 11.0859C224.863 11.0859 226.195 11.6367 227.133 12.7383C228.078 13.8398 228.551 15.3984 228.551 17.4141V18.5625H220.266C220.352 19.6094 220.699 20.4375 221.309 21.0469C221.926 21.6562 222.699 21.9609 223.629 21.9609C224.934 21.9609 225.996 21.4336 226.816 20.3789L228.352 21.8438C227.844 22.6016 227.164 23.1914 226.312 23.6133C225.469 24.0273 224.52 24.2344 223.465 24.2344ZM223.125 13.3711C222.344 13.3711 221.711 13.6445 221.227 14.1914C220.75 14.7383 220.445 15.5 220.312 16.4766H225.738V16.2656C225.676 15.3125 225.422 14.5938 224.977 14.1094C224.531 13.6172 223.914 13.3711 223.125 13.3711ZM237.41 13.9219C237.035 13.8594 236.648 13.8281 236.25 13.8281C234.945 13.8281 234.066 14.3281 233.613 15.3281V24H230.766V11.3203H233.484L233.555 12.7383C234.242 11.6367 235.195 11.0859 236.414 11.0859C236.82 11.0859 237.156 11.1406 237.422 11.25L237.41 13.9219Z" fill="#A8A8B3"/>
<path fill-rule="evenodd" clip-rule="evenodd" d="M0 16C0 7.16002 7.16002 0 16 0C24.84 0 32 7.16002 31.9999 16C31.9999 24.832 24.8399 31.9999 16 31.9999C7.16002 31.9999 0 24.832 0 16ZM6.39997 25.6L19.504 19.504L25.6 6.39997L12.496 12.496L6.39997 25.6ZM17.76 16C17.76 16.968 16.9759 17.76 16 17.76C15.032 17.76 14.2399 16.968 14.2399 16C14.2399 15.0319 15.0319 14.2399 16 14.2399C16.976 14.2399 17.76 15.0319 17.76 16Z" fill="#121214"/>
</svg>
