<svg width="688" height="648" viewBox="0 0 688 648" fill="none" xmlns="http://www.w3.org/2000/svg">
<g opacity="0.05" clip-path="url(#clip0)">
<g clip-path="url(#clip1)">
<path d="M661.473 125.833L357.267 -21.0251C354.57 -22.3258 351.43 -22.3258 348.734 -21.0251L44.5265 125.833C41.1346 127.47 38.9794 130.905 38.9794 134.671V491.327C38.9794 495.093 41.1346 498.529 44.5265 500.166L348.733 647.024C350.081 647.674 351.541 648 353 648C354.459 648 355.918 647.674 357.267 647.024L661.473 500.166C664.865 498.529 667.021 495.093 667.021 491.327V134.673C667.021 130.904 664.864 127.472 661.473 125.833ZM353 -1.28758L634.632 134.671L552.992 174.084C552.475 173.69 551.93 173.326 551.33 173.037L271.612 38.003L353 -1.28758ZM249.447 49.0998L530.669 184.861L473.071 212.668L191.966 76.9611L249.447 49.0998ZM537.249 203.48V306.265L483.448 332.238V229.453L537.249 203.48ZM647.392 485.169L362.814 622.548V287.689L430.695 254.919C435.576 252.563 437.623 246.696 435.266 241.814C432.909 236.934 427.043 234.885 422.16 237.243L353 270.632L325.786 257.493C320.904 255.134 315.038 257.183 312.681 262.064C310.324 266.945 312.371 272.813 317.252 275.17L343.186 287.689V622.548L58.6083 485.166V150.308L275.311 254.923C276.687 255.588 278.141 255.902 279.571 255.902C283.219 255.902 286.724 253.858 288.416 250.352C290.772 245.471 288.726 239.604 283.845 237.247L71.3684 134.671L168.865 87.6039L463.683 229.93C463.727 229.991 463.775 230.044 463.82 230.103V347.875C463.82 351.253 465.556 354.392 468.417 356.189C470.005 357.186 471.818 357.69 473.635 357.69C475.09 357.69 476.55 357.367 477.901 356.714L551.33 321.265C554.722 319.628 556.878 316.194 556.878 312.427V194.006L647.392 150.309V485.169Z" fill="url(#paint0_linear)"/>
<path d="M139.602 447.103L94.9597 425.552C90.0761 423.193 84.2109 425.242 81.8542 430.123C79.4974 435.004 81.544 440.872 86.4251 443.229L131.068 464.78C132.443 465.445 133.897 465.759 135.327 465.759C138.976 465.759 142.48 463.715 144.172 460.209C146.53 455.327 144.483 449.461 139.602 447.103Z" fill="url(#paint1_linear)"/>
<path d="M180.688 420.36L95.0212 379.003C90.1389 376.646 84.2724 378.693 81.9157 383.575C79.5602 388.456 81.6068 394.324 86.4879 396.681L172.155 438.037C173.53 438.701 174.984 439.016 176.414 439.016C180.063 439.016 183.567 436.972 185.259 433.467C187.616 428.583 185.569 422.715 180.688 420.36Z" fill="url(#paint2_linear)"/>
</g>
</g>
<defs>
<linearGradient id="paint0_linear" x1="353" y1="-22.0007" x2="353" y2="648" gradientUnits="userSpaceOnUse">
<stop stop-color="#121214"/>
<stop offset="1" stop-color="#121214" stop-opacity="0"/>
</linearGradient>
<linearGradient id="paint1_linear" x1="113.013" y1="424.573" x2="113.013" y2="465.759" gradientUnits="userSpaceOnUse">
<stop stop-color="#121214"/>
<stop offset="1" stop-color="#121214" stop-opacity="0"/>
</linearGradient>
<linearGradient id="paint2_linear" x1="133.588" y1="378.024" x2="133.588" y2="439.016" gradientUnits="userSpaceOnUse">
<stop stop-color="#121214"/>
<stop offset="1" stop-color="#121214" stop-opacity="0"/>
</linearGradient>
<clipPath id="clip0">
<rect width="688" height="688" fill="white" transform="translate(0 -40)"/>
</clipPath>
<clipPath id="clip1">
<rect width="670" height="670" fill="white" transform="translate(18 -22)"/>
</clipPath>
</defs>
</svg>
